<svg width="1200" height="540" viewBox="0 0 1200 540" fill="none" xmlns="http://www.w3.org/2000/svg">
  <defs>
    <linearGradient id="sky" x1="80" y1="0" x2="980" y2="500" gradientUnits="userSpaceOnUse">
      <stop stop-color="#E7D5BE"/>
      <stop offset="1" stop-color="#BFD9D2"/>
    </linearGradient>
  </defs>

  <rect width="1200" height="540" rx="34" fill="url(#sky)"/>
  <path d="M0 370C170 310 320 320 500 350C690 382 900 380 1200 320V540H0V370Z" fill="#7EA98E"/>
  <path d="M0 425C190 370 360 370 580 395C770 418 960 418 1200 372V540H0V425Z" fill="#2F644B"/>

  <rect x="530" y="170" width="156" height="178" rx="14" fill="#F7EFE3"/>
  <polygon points="608,112 714,190 502,190" fill="#7E4E2A"/>
  <rect x="594" y="220" width="28" height="128" rx="6" fill="#7E4E2A"/>
  <rect x="560" y="258" width="96" height="14" rx="7" fill="#7E4E2A"/>
  <rect x="600" y="226" width="12" height="74" rx="6" fill="#F7EFE3"/>

  <circle cx="260" cy="230" r="24" fill="#C05A47"/>
  <path d="M260 254C274 280 286 298 286 316C286 336 274 348 260 348C246 348 234 336 234 316C234 298 246 280 260 254Z" fill="#C05A47"/>
  <circle cx="260" cy="230" r="8" fill="#FFE0D6"/>

  <circle cx="920" cy="210" r="24" fill="#4A6EB0"/>
  <path d="M920 234C934 260 946 278 946 296C946 316 934 328 920 328C906 328 894 316 894 296C894 278 906 260 920 234Z" fill="#4A6EB0"/>
  <circle cx="920" cy="210" r="8" fill="#D6E2FF"/>
</svg>
