<svg width="900" height="620" viewBox="0 0 900 620" fill="none" xmlns="http://www.w3.org/2000/svg">
  <defs>
    <linearGradient id="bg" x1="80" y1="50" x2="780" y2="540" gradientUnits="userSpaceOnUse">
      <stop stop-color="#F1DDC4"/>
      <stop offset="1" stop-color="#C8E0CD"/>
    </linearGradient>
    <linearGradient id="hill" x1="120" y1="350" x2="740" y2="520" gradientUnits="userSpaceOnUse">
      <stop stop-color="#2E5E49"/>
      <stop offset="1" stop-color="#173A2B"/>
    </linearGradient>
  </defs>

  <rect width="900" height="620" rx="42" fill="url(#bg)"/>
  <circle cx="680" cy="160" r="72" fill="#F9B76A"/>

  <path d="M0 420C130 360 250 350 360 380C500 420 620 430 900 350V620H0V420Z" fill="#8CB497"/>
  <path d="M0 500C160 430 320 420 470 450C620 480 730 480 900 430V620H0V500Z" fill="url(#hill)"/>

  <rect x="372" y="210" width="156" height="210" rx="18" fill="#F5EEE1"/>
  <polygon points="450,138 560,226 340,226" fill="#7B4D2B"/>
  <rect x="436" y="268" width="28" height="152" rx="6" fill="#7B4D2B"/>
  <rect x="402" y="308" width="96" height="14" rx="7" fill="#7B4D2B"/>
  <rect x="442" y="275" width="12" height="80" rx="6" fill="#F5EEE1"/>

  <circle cx="244" cy="414" r="24" fill="#F5C79C"/>
  <rect x="224" y="438" width="42" height="84" rx="18" fill="#A15F2D"/>
  <circle cx="310" cy="430" r="20" fill="#F2C39A"/>
  <rect x="294" y="450" width="34" height="72" rx="14" fill="#5A7B66"/>
  <circle cx="584" cy="414" r="24" fill="#F5C79C"/>
  <rect x="564" y="438" width="42" height="84" rx="18" fill="#7F8A59"/>
  <circle cx="648" cy="430" r="20" fill="#EEC29A"/>
  <rect x="632" y="450" width="34" height="72" rx="14" fill="#825B89"/>

  <circle cx="248" cy="406" r="6" fill="#2F2B28"/>
  <circle cx="586" cy="406" r="6" fill="#2F2B28"/>
</svg>
